<svg width="25" height="24" viewBox="0 0 25 24" fill="none" xmlns="http://www.w3.org/2000/svg">
<path d="M12.5 24C19.1312 24 24.5 18.6173 24.5 12C24.5 5.36879 19.1312 0 12.5 0C5.86879 0 0.5 5.36879 0.5 12C0.5 18.6173 5.86879 24 12.5 24Z" fill="#0059FF"/>
<path d="M10.2966 14.8857L17.8989 7.14464C18.0746 6.95967 18.2874 6.86719 18.5371 6.86719C18.7868 6.86719 18.9995 6.95967 19.1752 7.14464C19.3602 7.32962 19.4527 7.54698 19.4527 7.79669C19.4527 8.04641 19.3602 8.26371 19.1752 8.44868L10.9209 16.8556C10.7452 17.0313 10.5371 17.1192 10.2966 17.1192C10.0562 17.1192 9.84806 17.0313 9.67234 16.8556L5.81565 12.9158C5.63993 12.74 5.55208 12.5273 5.55208 12.2776C5.56133 12.0186 5.65845 11.8013 5.84342 11.6255C6.01914 11.4406 6.23187 11.3481 6.48159 11.3481C6.72205 11.3481 6.93478 11.4406 7.11975 11.6255L10.2966 14.8857Z" fill="#00FF94"/>
</svg>
