<svg width="24" height="24" viewBox="0 0 24 24" fill="none" xmlns="http://www.w3.org/2000/svg">
<path d="M12 24C18.6312 24 24 18.6173 24 12C24 5.36879 18.6312 0 12 0C5.36879 0 0 5.36879 0 12C0 18.6173 5.36879 24 12 24Z" fill="#00FF94"/>
<path d="M9.79662 14.8857L17.3989 7.14464C17.5746 6.95967 17.7874 6.86719 18.0371 6.86719C18.2868 6.86719 18.4995 6.95967 18.6752 7.14464C18.8602 7.32962 18.9527 7.54698 18.9527 7.79669C18.9527 8.04641 18.8602 8.26371 18.6752 8.44868L10.4209 16.8556C10.2452 17.0313 10.0371 17.1192 9.79662 17.1192C9.55616 17.1192 9.34806 17.0313 9.17234 16.8556L5.31565 12.9158C5.13993 12.74 5.05208 12.5273 5.05208 12.2776C5.06133 12.0186 5.15845 11.8013 5.34343 11.6255C5.51915 11.4406 5.73188 11.3481 5.98159 11.3481C6.22205 11.3481 6.43478 11.4406 6.61975 11.6255L9.79662 14.8857Z" fill="#05133B"/>
</svg>
