<svg width="20" height="20" viewBox="0 0 20 20" fill="none" xmlns="http://www.w3.org/2000/svg">
<path d="M10 20C15.526 20 20 15.5145 20 10C20 4.47399 15.526 0 10 0C4.47399 0 0 4.47399 0 10C0 15.5145 4.47399 20 10 20Z" fill="#051238"/>
<path d="M8.16203 12.4047L14.4973 5.95387C14.6437 5.79973 14.821 5.72266 15.0291 5.72266C15.2372 5.72266 15.4144 5.79973 15.5609 5.95387C15.715 6.10801 15.7921 6.28915 15.7921 6.49725C15.7921 6.70534 15.715 6.88642 15.5609 7.04056L8.68226 14.0464C8.53583 14.1928 8.36242 14.266 8.16203 14.266C7.96165 14.266 7.78824 14.1928 7.6418 14.0464L4.42789 10.7631C4.28146 10.6167 4.20825 10.4394 4.20825 10.2313C4.21596 10.0155 4.2969 9.83439 4.45104 9.68795C4.59747 9.53381 4.77475 9.45674 4.98284 9.45674C5.18323 9.45674 5.3605 9.53381 5.51464 9.68795L8.16203 12.4047Z" fill="#FF4A4A"/>
</svg>
